#!OML:ASF H:\Terrain\Patient Classification 1\PLAYGROUND\JustinFriday\JustinFriday.ASF
:FULLY-SPECIFIED
:DEGREES
1632
root -14.3412 27.7481 -4.8409 321.903 -5.77445 1.36226
lowerback 40.0473 0.266983 6.2395
upperback 15.127 2.93242 5.11938
thorax -2.4673 1.48179 1.17136
lowerneck -0.950664 16.0379 1.67352
upperneck 8.04973 21.7213 -3.64238
head 3.42409 10.7357 -0.632054
rclavicle 1.51076e-014 -4.77083e-015
rhumerus 49.0661 -37.7419 -48.2317
rradius 94.0264
rwrist 2.59405
rhand -28.4971 -3.56212
rfingers 7.12502
rthumb -1.86603 -33.5337
lclavicle 1.51076e-014 -4.77083e-015
lhumerus 46.0562 22.3118 75.422
lradius 109.856
lwrist -12.7607
lhand -19.6156 -5.59222
lfingers 7.12502
lthumb 6.71086 24.2814
rfemur -34.532 2.22642 7.82551
rtibia 100.512
rfoot 21.6376 -3.37624
rtoes 20.5607
lfemur -30.4493 9.78626 -3.24978
ltibia 81.2198
lfoot 18.892 -6.4616
ltoes 0.22214
1633
root -14.3424 27.7634 -4.84562 321.935 -5.94881 1.25234
lowerback 40.1602 0.247951 6.3903
upperback 15.0641 2.97795 5.12908
thorax -2.56003 1.50563 1.08722
lowerneck 1.12944 16.3388 2.31187
upperneck 5.89925 22.1043 -4.89499
head 2.58191 10.9892 -1.35159
rclavicle 7.15625e-015 1.90833e-014
rhumerus 49.2329 -37.8985 -49.4376
rradius 95.5386
rwrist 3.08294
rhand -20.7174 -7.06905
rfingers 7.12502
rthumb 5.64716 -36.9738
lclavicle 7.15625e-015 1.90833e-014
lhumerus 45.9466 21.6926 74.8486
lradius 109.389
lwrist -9.94919
lhand -20.9282 -5.12221
lfingers 7.12502
lthumb 5.44363 24.7879
rfemur -34.4691 2.39596 7.93396
rtibia 100.847
rfoot 21.539 -2.70418
rtoes 19.0207
lfemur -30.356 9.77015 -2.9339
ltibia 81.2746
lfoot 19.1138 -6.71616
ltoes 0.604999
1634
root -14.343 27.7671 -4.84669 321.98 -6.17395 0.911127
lowerback 40.0927 0.155532 6.75252
upperback 15.1254 2.99169 5.2379
thorax -2.45112 1.52584 1.01759
lowerneck 1.69371 16.4842 2.40249
upperneck 5.17387 22.2861 -5.24805
head 2.3086 11.0996 -1.54463
rclavicle -4.17448e-014 -2.70347e-014
rhumerus 49.5905 -37.5081 -48.7527
rradius 94.0901
rwrist 3.6202
rhand -21.521 -6.98461
rfingers 7.12502
rthumb 4.87133 -36.9086
lclavicle -4.17448e-014 -2.70347e-014
lhumerus 46.264 22.6015 75.5258
lradius 110.23
lwrist -12.7633
lhand -24.2699 -5.55181
lfingers 7.12502
lthumb 2.21665 24.4164
rfemur -34.3555 2.49971 8.29516
rtibia 101.131
rfoot 21.2221 -3.04568
rtoes 18.4943
lfemur -30.3162 9.71942 -2.33837
ltibia 81.2808
lfoot 19.3135 -6.34052
ltoes 2.58366
1635
root -14.3418 27.7783 -4.84207 321.818 -5.96589 1.11443
lowerback 40.2321 0.176975 6.5078
upperback 15.106 2.94141 5.19654
thorax -2.5306 1.49011 1.11295
lowerneck 0.754463 16.5122 2.09725
upperneck 6.14485 22.3269 -4.57555
head 2.6686 11.091 -1.17787
rclavicle 1.55052e-014 0
rhumerus 49.2762 -37.6946 -48.9403
rradius 95.2973
rwrist 3.30912
rhand -21.4079 -7.32017
rfingers 7.12502
rthumb 4.98047 -37.2416
lclavicle 1.55052e-014 0
lhumerus 46.3236 21.6291 75.3613
lradius 109.454
lwrist -10.9314
lhand -20.6082 -5.16925
lfingers 7.12502
lthumb 5.75263 24.7327
rfemur -33.9882 2.51346 7.7248
rtibia 101.179
rfoot 21.2417 -3.55945
rtoes 19.8354
lfemur -29.942 9.4907 -2.62941
ltibia 81.065
lfoot 19.2578 -6.00061
ltoes 3.09741
1636
root -14.3406 27.8133 -4.84074 321.417 -5.2169 2.04802
lowerback 40.4998 0.379727 5.46246
upperback 15.0867 2.81798 4.96954
thorax -2.6927 1.39275 1.44117
lowerneck 0.588118 16.4682 2.14072
upperneck 6.64287 22.281 -4.41206
head 2.84856 11.06 -1.09728
rclavicle -4.37326e-015 -3.33958e-014
rhumerus 47.8574 -37.6451 -47.5756
rradius 94.8614
rwrist 2.41381
rhand -28.1062 -4.30573
rfingers 7.12502
rthumb -1.48851 -34.2803
lclavicle -4.37326e-015 -3.33958e-014
lhumerus 45.912 21.4442 75.1514
lradius 109.357
lwrist -10.1118
lhand -23.8905 -6.4193
lfingers 7.12502
lthumb 2.58312 23.5448
rfemur -33.3167 2.2465 5.9932
rtibia 101.171
rfoot 20.8004 -2.67072
rtoes 17.1628
lfemur -29.1823 9.06119 -4.06361
ltibia 80.7314
lfoot 19.2258 -5.67819
ltoes 1.89634
